<svg xmlns="http://www.w3.org/2000/svg" width="60" height="60" viewBox="0 0 60 60">
  <g id="Group_6808" data-name="Group 6808" transform="translate(-166 -1105)">
    <g id="Group_4330" data-name="Group 4330" transform="translate(166 1105)">
      <path id="Union_4" data-name="Union 4" d="M6.573,14.91a1.046,1.046,0,0,1,.751-1.275v-.57A5.2,5.2,0,0,1,4.081,11.72L3.5,12.3a1.309,1.309,0,0,1-.167,1.645l-.005.005a1.308,1.308,0,1,1-.2-2.022l.584-.581A5.2,5.2,0,0,1,2.368,8.109H1.793a.915.915,0,1,1,0-.523h.576A5.2,5.2,0,0,1,3.713,4.343l-.584-.581a1.33,1.33,0,0,1-.722.215A1.31,1.31,0,1,1,3.5,3.391l.581.584A5.2,5.2,0,0,1,7.325,2.63v-.57a1.046,1.046,0,1,1,.523,0v.57a5.2,5.2,0,0,1,3.243,1.345l.581-.584a1.306,1.306,0,1,1,1.093.586,1.331,1.331,0,0,1-.722-.215l-.584.581A5.2,5.2,0,0,1,12.8,7.586h.832a1.046,1.046,0,1,1,0,.523H12.8a5.2,5.2,0,0,1-1.345,3.243l.584.581a1.308,1.308,0,0,1,1.645,2.017,1.3,1.3,0,0,1-.923.384,1.31,1.31,0,0,1-1.093-2.03l-.581-.584a5.2,5.2,0,0,1-3.243,1.345v.57A1.046,1.046,0,1,1,6.573,14.91Z" transform="translate(12.92)" fill="#fff"/>
      <g id="bacteria" transform="translate(0 21.682)">
        <path id="Union_6" data-name="Union 6" d="M4.538,10.292a.722.722,0,0,1,.519-.88V9.019a3.591,3.591,0,0,1-2.239-.928l-.4.4A.9.9,0,0,1,2.3,9.629l0,0a.9.9,0,1,1-.137-1.4l.4-.4A3.591,3.591,0,0,1,1.635,5.6h-.4a.632.632,0,1,1,0-.361h.4A3.593,3.593,0,0,1,2.563,3l-.4-.4a.918.918,0,0,1-.5.148.9.9,0,1,1,.755-.4l.4.4a3.59,3.59,0,0,1,2.239-.928V1.422a.722.722,0,1,1,.361,0v.394a3.591,3.591,0,0,1,2.239.928l.4-.4a.9.9,0,1,1,.755.4.918.918,0,0,1-.5-.148l-.4.4a3.591,3.591,0,0,1,.928,2.239h.574a.722.722,0,1,1,0,.361H8.838A3.591,3.591,0,0,1,7.91,7.836l.4.4a.9.9,0,1,1-.256.256l-.4-.4a3.591,3.591,0,0,1-2.239.928v.394a.722.722,0,1,1-.88.88Z" transform="translate(0 0)" fill="#fff"/>
      </g>
      <path id="Union_5" data-name="Union 5" d="M9.2,20.86a1.464,1.464,0,0,1,1.051-1.783v-.8A7.278,7.278,0,0,1,5.71,16.4l-.812.817a1.831,1.831,0,0,1-.234,2.3l-.007.007A1.831,1.831,0,1,1,4.378,16.7l.816-.812a7.278,7.278,0,0,1-1.881-4.538h-.8a1.281,1.281,0,1,1,0-.732h.805A7.28,7.28,0,0,1,5.195,6.076l-.817-.812a1.861,1.861,0,0,1-1.01.3A1.833,1.833,0,1,1,4.9,4.744l.812.817a7.278,7.278,0,0,1,4.537-1.881v-.8a1.464,1.464,0,1,1,.732,0v.8a7.278,7.278,0,0,1,4.538,1.881l.812-.817a1.827,1.827,0,1,1,1.53.82,1.862,1.862,0,0,1-1.01-.3l-.817.812a7.279,7.279,0,0,1,1.881,4.538h1.164a1.464,1.464,0,1,1,0,.732H17.914a7.278,7.278,0,0,1-1.881,4.537l.817.812a1.83,1.83,0,1,1-.52.52l-.812-.817a7.278,7.278,0,0,1-4.538,1.881v.8A1.464,1.464,0,1,1,9.2,20.86Z" transform="translate(38.041 38.041)" fill="#fff"/>
      <g id="blood-test" transform="translate(2.031 1.693)">
        <path id="Path_2190" data-name="Path 2190" d="M0,0H26.73V6.772H0Z" transform="translate(8.457 37.634) rotate(-45)" fill="#fff"/>
        <path id="Path_2191" data-name="Path 2191" d="M2.476,143.9a8.474,8.474,0,0,0,11.97,0l32.068-32.068-11.97-11.97-4.788,4.788,5.985,5.985a1.692,1.692,0,0,1,0,2.394l-21.3,21.295a1.692,1.692,0,0,1-2.394,0l-5.985-5.985-3.591,3.591a8.475,8.475,0,0,0,0,11.97Z" transform="translate(-0.001 -88.063)" fill="#fff"/>
        <path id="Path_2192" data-name="Path 2192" d="M315.577,10.471l7.182-7.182L319.966.5a1.692,1.692,0,0,0-2.394,0l-4.788,4.788a1.692,1.692,0,0,0,0,2.394Z" transform="translate(-276.906 0)" fill="#fff"/>
        <path id="Path_2193" data-name="Path 2193" d="M0,0H10.157V5.643H0Z" transform="translate(41.108 12.869) rotate(-45)" fill="#fff"/>
        <path id="Path_2194" data-name="Path 2194" d="M426.4,106.929l-7.182,7.182,2.793,2.793a1.692,1.692,0,0,0,2.394,0l4.788-4.788a1.692,1.692,0,0,0,0-2.394Z" transform="translate(-371.719 -94.728)" fill="#fff"/>
      </g>
    </g>
  </g>
</svg>
