<svg xmlns="http://www.w3.org/2000/svg" width="60" height="59.047" viewBox="0 0 60 59.047">
  <g id="Group_6810" data-name="Group 6810" transform="translate(-828 -166)">
    <g id="Layer_2" data-name="Layer 2" transform="translate(828 165.997)">
      <g id="Layer_1" data-name="Layer 1">
        <path id="Path_2183" data-name="Path 2183" d="M4.42,11.47,16.22,4V1.78h0A1.73,1.73,0,0,0,14.48.05H6.15A1.73,1.73,0,0,0,4.42,1.78Z" fill="#fff"/>
        <path id="Path_2342" data-name="Path 2342" d="M0,19.73v6.51a2.64,2.64,0,0,0,4,2.23L28.61,13.15a2.63,2.63,0,0,1,2.78,0L56,28.47a2.64,2.64,0,0,0,4-2.23v-6.4a2.64,2.64,0,0,0-1.23-2.23L31.39.4A2.65,2.65,0,0,0,28.6.4L1.24,17.5A2.64,2.64,0,0,0,0,19.73Z" fill="#fff"/>
        <path id="Path_2343" data-name="Path 2343" d="M30,16.16,4.63,31.91V53.05a6,6,0,0,0,6,6H49.37a6,6,0,0,0,6-6V31.91ZM42,43.52,31,54.22a1.45,1.45,0,0,1-1,.43,1.48,1.48,0,0,1-1.05-.43L18,43.64A7.6,7.6,0,1,1,28.6,32.749h0l1.11,1.08a.32.32,0,0,0,.46,0l1.23-1.2a7.55,7.55,0,0,1,5.29-2.15h.11a7.6,7.6,0,0,1,5.19,13Z" fill="#fff"/>
        <path id="Path_2344" data-name="Path 2344" d="M36.76,33.48h-.07a4.58,4.58,0,0,0-3.2,1.3L32.26,36a3.3,3.3,0,0,1-4.64,0l-1.11-1.1a4.6,4.6,0,0,0-6.41,6.59l9.84,9.57,10-9.69a4.6,4.6,0,0,0-3.14-7.89Z" fill="#fff"/>
      </g>
    </g>
  </g>
</svg>
