<svg id="Hospital_Care" data-name="Hospital Care" xmlns="http://www.w3.org/2000/svg" width="83.149" height="60" viewBox="0 0 83.149 60">
  <path id="Path_2345" data-name="Path 2345" d="M104.018,80.187H100.35V40.865a2.7,2.7,0,0,0-2.7-2.7H83.7a2.452,2.452,0,0,0-2.452,2.452V80.187H79.178V30.165a3.934,3.934,0,0,0-3.934-3.915h-24A3.554,3.554,0,0,0,47.686,29.8V80.187H45.52V47.346a2.471,2.471,0,0,0-2.452-2.452H28.662a2.243,2.243,0,0,0-2.243,2.243v33.05H22.77a.95.95,0,0,0-.95.95V85.3a.969.969,0,0,0,.95.95h81.248a.95.95,0,0,0,.95-.95V81.138A.95.95,0,0,0,104.018,80.187ZM41.3,67.055a.969.969,0,0,1-.95.95h-8.8a.95.95,0,0,1-.95-.95v-2.49a.95.95,0,0,1,.95-.95h8.857a.969.969,0,0,1,.95.95Zm0-7.108a.95.95,0,0,1-.95.95h-8.8a.95.95,0,0,1-.95-.95V57.476a.95.95,0,0,1,.95-.95h8.857a.95.95,0,0,1,.95.95Zm0-7.108a.95.95,0,0,1-.95.95h-8.8a.95.95,0,0,1-.95-.95V50.368a.95.95,0,0,1,.95-.95h8.857a.95.95,0,0,1,.95.95Zm22.027-1.273a9.474,9.474,0,1,1,.057,0Zm32.8,17.1a.969.969,0,0,1-.95.95H86.362a.969.969,0,0,1-.95-.95V66.123a.969.969,0,0,1,.95-.95h8.876a.969.969,0,0,1,.95.95Zm0-7.374a.969.969,0,0,1-.95.95H86.362a.969.969,0,0,1-.95-.95V58.749a.969.969,0,0,1,.95-.95h8.876a.969.969,0,0,1,.95.95Zm0-7.6a.95.95,0,0,1-.95.95H86.362a.95.95,0,0,1-.95-.95V51.223a.95.95,0,0,1,.95-.95h8.876a.95.95,0,0,1,.95.95Zm0-7.469a.969.969,0,0,1-.95.95H86.362a.969.969,0,0,1-.95-.95V43.64a.969.969,0,0,1,.95-.95h8.876a.969.969,0,0,1,.95.95Z" transform="translate(-21.82 -26.25)" fill="#fff"/>
  <path id="Path_2346" data-name="Path 2346" d="M52.246,35.291H49.016V32.06a.95.95,0,0,0-.95-.95H45.252a.95.95,0,0,0-.95.95v3.231H41.09a.95.95,0,0,0-.95.95v2.813a.95.95,0,0,0,.95.95H44.3v3.212a.95.95,0,0,0,.95.95h2.813a.95.95,0,0,0,.95-.95V40h3.231a.95.95,0,0,0,.95-.95V36.241A.95.95,0,0,0,52.246,35.291Z" transform="translate(-5.322 -21.873)" fill="#fff"/>
</svg>
