<svg id="Group_7345" data-name="Group 7345" xmlns="http://www.w3.org/2000/svg" width="18" height="18" viewBox="0 0 18 18">
  <path id="Path_2159" data-name="Path 2159" d="M31.5,22.5a9,9,0,1,0,9,9A8.995,8.995,0,0,0,31.5,22.5Zm0,16.364A7.364,7.364,0,1,1,38.864,31.5,7.375,7.375,0,0,1,31.5,38.864Z" transform="translate(-22.5 -22.5)" fill="#0042ff"/>
  <path id="Path_2160" data-name="Path 2160" d="M48.315,44.7a.807.807,0,0,0-.815.815v4.139a.815.815,0,0,0,1.63,0V45.515A.807.807,0,0,0,48.315,44.7Z" transform="translate(-39.315 -37.42)" fill="#0042ff"/>
  <path id="Path_2161" data-name="Path 2161" d="M48.315,37.7a.807.807,0,0,0-.815.815h0a.815.815,0,1,0,.815-.815Z" transform="translate(-39.315 -32.723)" fill="#0042ff"/>
</svg>
