<svg xmlns="http://www.w3.org/2000/svg" width="59.98" height="60" viewBox="0 0 59.98 60">
  <g id="Layer_2" data-name="Layer 2" transform="translate(-0.009 0.045)">
    <g id="Layer_1" data-name="Layer 1" transform="translate(0.009 -0.045)">
      <path id="Path_3966" data-name="Path 3966" d="M11.551,26.92a2.088,2.088,0,0,0,2.948,0L26.968,14.447a2.088,2.088,0,0,0,0-2.948L18.617,3.147a10.9,10.9,0,0,0-15.417,0h0a10.907,10.907,0,0,0,0,15.417Z" transform="translate(-0.009 0.045)" fill="#fff"/>
      <path id="Path_3967" data-name="Path 3967" d="M93.787,78.37a2.088,2.088,0,0,0-2.948,0L78.37,90.843a2.088,2.088,0,0,0,0,2.948l8.293,8.289a10.907,10.907,0,0,0,15.417,0h0a10.9,10.9,0,0,0,0-15.413h0Z" transform="translate(-45.294 -45.271)" fill="#fff"/>
      <path id="Path_3968" data-name="Path 3968" d="M15.087,78.37a2.088,2.088,0,0,0-2.948,0L4.255,86.258a10.9,10.9,0,0,0,0,15.421h0a10.911,10.911,0,0,0,15.421,0l7.884-7.888a2.088,2.088,0,0,0,0-2.948Z" transform="translate(-0.621 -45.271)" fill="#fff"/>
      <path id="Path_3969" data-name="Path 3969" d="M65.527,50.378,52.733,37.587a2.088,2.088,0,0,0-2.952,0h0L36.986,50.378a1.633,1.633,0,0,0,0,2.305L50.1,65.8a1.633,1.633,0,0,0,2.305,0L65.527,52.683A1.633,1.633,0,0,0,65.527,50.378ZM41.517,53.221a1.6,1.6,0,1,1,1.6-1.6,1.6,1.6,0,0,1-1.6,1.6Zm9.667,9.441a1.6,1.6,0,1,1,1.6-1.6h0a1.6,1.6,0,0,1-1.591,1.6Zm0-9.441a1.6,1.6,0,1,1,1.6-1.6h0a1.6,1.6,0,0,1-1.591,1.6Zm0-9.187a1.6,1.6,0,1,1,1.6-1.6h0a1.6,1.6,0,0,1-1.574,1.616h-.025Zm9.124,8.84a1.6,1.6,0,1,1,1.6-1.608h0a1.6,1.6,0,0,1-1.583,1.616h0Z" transform="translate(-21.268 -21.517)" fill="#fff"/>
      <path id="Path_3970" data-name="Path 3970" d="M90.843,27.621a2.088,2.088,0,0,0,2.948,0l7.813-7.83A10.906,10.906,0,1,0,86.212,4.337l-.042.038-7.8,7.813a2.088,2.088,0,0,0,0,2.948Z" transform="translate(-45.294 -0.656)" fill="#fff"/>
    </g>
  </g>
</svg>
