<svg xmlns="http://www.w3.org/2000/svg" width="73.081" height="66.612" viewBox="0 0 73.081 66.612">
  <g id="Group_7344" data-name="Group 7344" transform="translate(-196 -199.12)">
    <path id="Shape-4" d="M2.943,26.767A1.536,1.536,0,0,0,.126,27.976h0L5.2,39.16a11.462,11.462,0,0,0,2.3,3.313l8.536,8.536a1.62,1.62,0,0,0,1.124.459h8.464A1.584,1.584,0,0,0,27.21,49.9V49.05a11.051,11.051,0,0,0-2.273-6.88,6.88,6.88,0,0,0-3.119-2.309,27.809,27.809,0,0,1-8.282-5.247,3.4,3.4,0,0,0-2.986-.665,1,1,0,0,0-.5,1.584c.278.339.568.653.883.967l5.985,5.961a1.3,1.3,0,0,1-1.789,1.874h0L9.206,38.41a15.356,15.356,0,0,1-3.277-4.836Z" transform="translate(195.966 201.241)" fill="#fff"/>
    <path id="Shape" d="M20.926,5.8A1.33,1.33,0,0,0,19.39,7.1V26.447a6.493,6.493,0,0,0,2.684,5.247l8.79,6.348a2.575,2.575,0,0,0,3,0l8.79-6.348a6.493,6.493,0,0,0,2.684-5.247V7.1a1.33,1.33,0,0,0-1.56-1.318A72.473,72.473,0,0,1,20.926,5.8Zm9.068,24.182H29.8a1.294,1.294,0,0,1-.774-.254l-5.272-3.857a1.295,1.295,0,1,1,1.56-2.068h0L29.4,26.858l9.673-14.425a1.294,1.294,0,1,1,2.152,1.439h0L30.852,29.445a1.33,1.33,0,0,1-.858.556Z" transform="translate(200.3 200.026)" fill="#fff"/>
    <path id="Shape-5" d="M59.482,39.216l5.09-11.184a1.541,1.541,0,1,0-2.781-1.33v.085l-2.9,6.771a15.356,15.356,0,0,1-3.277,4.836l-5.925,5.925a1.321,1.321,0,1,1-1.9-1.838l5.925-5.925a12.526,12.526,0,0,0,.931-1.028.943.943,0,0,0-.472-1.5,3.361,3.361,0,0,0-3.059.653,27.906,27.906,0,0,1-8.282,5.247,6.783,6.783,0,0,0-3.107,2.309,10.966,10.966,0,0,0-2.285,6.88v1.028a1.39,1.39,0,0,0,1.39,1.39H47.6a1.378,1.378,0,0,0,.979-.411l8.6-8.6A11.2,11.2,0,0,0,59.482,39.216Z" transform="translate(204.357 201.222)" fill="#fff"/>
    <path id="Path_2339" data-name="Path 2339" d="M45.29,1.538a98.239,98.239,0,0,1-24.412.024A4.546,4.546,0,0,0,15.8,6.084V28.706a8.645,8.645,0,0,0,3.627,6.989l12.091,8.742a2.781,2.781,0,0,0,3.24,0L46.85,35.695a8.645,8.645,0,0,0,3.627-6.989V6.047a4.558,4.558,0,0,0-5.187-4.51Z" transform="translate(199.55 199.134)" fill="none" stroke="#fff" stroke-miterlimit="10" stroke-width="3"/>
    <path id="Path_2340" data-name="Path 2340" d="M24.836,49.23H15.163A2.273,2.273,0,0,0,12.89,51.5v5.84a2.285,2.285,0,0,0,2.273,2.273h9.673a2.273,2.273,0,0,0,2.273-2.273V51.5A2.273,2.273,0,0,0,24.836,49.23Zm.351,4.933a1.1,1.1,0,1,1-2.2,0V52.954a1.1,1.1,0,1,1,2.2,0Z" transform="translate(198.806 206.115)" fill="#fff"/>
    <path id="Path_2341" data-name="Path 2341" d="M47.346,49.23H37.613A2.273,2.273,0,0,0,35.34,51.5v5.84a2.273,2.273,0,0,0,2.273,2.273h9.733a2.273,2.273,0,0,0,2.261-2.273V51.5a2.273,2.273,0,0,0-2.261-2.273Zm-7.907,4.933a1.1,1.1,0,1,1-2.2,0V52.954a1.1,1.1,0,1,1,2.2,0Z" transform="translate(203.767 206.115)" fill="#fff"/>
  </g>
</svg>
